<svg width="29" height="28" viewBox="0 0 29 28" fill="none" xmlns="http://www.w3.org/2000/svg">
<g clip-path="url(#clip0)">
<path d="M21.591 0.0307617H7.62699C3.77979 0.0307617 0.64978 3.15024 0.64978 6.98451V21.0156C0.64978 24.8496 3.77979 27.9694 7.62699 27.9694H21.591C25.4382 27.9694 28.5682 24.8496 28.5682 21.0156V6.98448C28.5682 3.15024 25.4382 0.0307897 21.591 0.0307897V0.0307617ZM25.9841 21.0155C25.9841 23.4295 24.0135 25.3938 21.5911 25.3938H7.62702C5.20463 25.3938 3.23396 23.4295 3.23396 21.0155V11.9534H8.75405C8.35104 12.8058 8.12438 13.7567 8.12438 14.7595C8.12438 18.4018 11.0974 21.3646 14.7519 21.3646C18.4062 21.3646 21.3793 18.4018 21.3793 14.7595C21.3793 13.7567 21.1527 12.8058 20.7496 11.9534H25.9841V21.0155H25.9841ZM12.0006 14.7595C12.0006 13.2478 13.2348 12.0177 14.7519 12.0177C16.2691 12.0177 17.5031 13.2479 17.5031 14.7595C17.5031 16.2716 16.2691 17.5015 14.7519 17.5015C13.2348 17.5014 12.0006 16.2716 12.0006 14.7595V14.7595ZM25.9841 9.37797H18.5872C17.5036 8.60887 16.1805 8.15451 14.7519 8.15451C13.3233 8.15451 12 8.60887 10.9167 9.37797H3.23396V6.98451C3.23396 4.57026 5.20463 2.60623 7.62702 2.60623H21.5911C24.0135 2.60623 25.9841 4.57026 25.9841 6.98451V9.37797H25.9841H25.9841ZM23.1839 4.16821H20.7885C20.362 4.16821 20.0133 4.51591 20.0133 4.94084V7.32829C20.0133 7.75319 20.362 8.10092 20.7885 8.10092H23.1839C23.6104 8.10092 23.9592 7.75319 23.9592 7.32829V4.94084C23.9592 4.51591 23.6104 4.16821 23.1839 4.16821Z" fill="black"/>
</g>
<defs>
<clipPath id="clip0">
<rect width="28" height="28" fill="white" transform="translate(0.609009)"/>
</clipPath>
</defs>
</svg>
